<svg role="img" aria-hidden="true" focusable="false" xmlns="http://www.w3.org/2000/svg" viewBox="0 0 500 500"><path fill="#006e8f" d="M383.23 127.45 46.36 296.05C25 306.74 16.3 330.47 26.25 350.39l54.83 110.32c9.59 19.19 34.51 26.36 55.09 16.05L473.36 308.8c21.36-10.69 31.79-34.46 21.84-54.37l-54.83-110.32c-9.95-19.92-35.79-27.35-57.15-16.66Z"/><g fill="#f9b23c"><path d="M427.09 302.08c2.65-3.49 6.78-5.53 11.15-5.54h7.01c2.89 0 5.24-2.31 5.31-5.2l.15-7.01c.09-4.38 2.23-8.46 5.77-11.04l5.67-4.13a5.32 5.32 0 0 0 1.24-7.32l-4-5.76c-2.5-3.6-3.17-8.15-1.82-12.32l2.16-6.67a5.31 5.31 0 0 0-3.3-6.65l-6.62-2.31a14 14 0 0 1-8.71-8.9l-2.17-6.67a5.315 5.315 0 0 0-6.58-3.44l-6.72 2.02c-4.19 1.26-8.73.5-12.28-2.08l-5.68-4.12a5.31 5.31 0 0 0-7.35 1.09l-4.24 5.58a14.04 14.04 0 0 1-11.15 5.54h-7.01c-2.89 0-5.24 2.31-5.31 5.2l-.15 7.01c-.09 4.38-2.23 8.46-5.77 11.04l-5.67 4.13a5.32 5.32 0 0 0-1.24 7.32l4 5.76c2.5 3.6 3.17 8.15 1.82 12.32l-2.16 6.67a5.31 5.31 0 0 0 3.3 6.65l6.62 2.31c4.13 1.44 7.36 4.73 8.71 8.9l2.17 6.67a5.315 5.315 0 0 0 6.58 3.44l6.72-2.02c4.19-1.26 8.73-.49 12.28 2.08l5.68 4.12a5.31 5.31 0 0 0 7.35-1.09zm-49.58-28.3c-9.34-18.82-1.66-41.66 17.16-51s41.66-1.66 51 17.16 1.66 41.66-17.16 51-41.66 1.66-51-17.16"/><path d="M387.53 274.64c-4.45-6.49-6.1-14.33-4.65-22.06 1.45-7.74 5.82-14.44 12.31-18.89s14.33-6.1 22.06-4.65c7.74 1.45 14.44 5.82 18.89 12.31 4.45 6.5 6.1 14.33 4.65 22.07l-10.29-1.93c.94-4.98-.13-10.04-3-14.22-2.87-4.19-7.19-7.01-12.18-7.94s-10.04.13-14.23 3-7.01 7.19-7.94 12.18.13 10.04 3 14.23 7.19 7.01 12.18 7.94l-1.92 10.29c-7.74-1.45-14.44-5.82-18.89-12.31ZM316.67 360.23c-.96-.14-1.89-.51-2.73-1.1l-4.88-3.46a10.12 10.12 0 0 0-8.83-1.38l-5.71 1.8c-3.31 1.04-6.91-.79-8.02-4.07l-1.92-5.67c-1-2.96-3.37-5.31-6.33-6.31l-5.67-1.9c-3.29-1.1-5.13-4.7-4.1-8.01l1.78-5.71c.93-2.98.4-6.28-1.41-8.82l-3.47-4.87c-2.01-2.83-1.39-6.81 1.39-8.89l4.8-3.58c2.5-1.87 4.01-4.84 4.04-7.97l.06-5.98c.03-3.47 2.88-6.33 6.35-6.37l5.98-.08c3.12-.04 6.1-1.56 7.95-4.07l3.56-4.81c2.07-2.79 6.05-3.42 8.88-1.42l4.88 3.45a10.12 10.12 0 0 0 8.83 1.38l5.71-1.79c3.31-1.04 6.91.79 8.02 4.07l1.92 5.67c1 2.96 3.37 5.31 6.33 6.31l5.67 1.9c3.29 1.1 5.13 4.7 4.1 8.01l-1.78 5.71c-.93 2.98-.4 6.28 1.41 8.82l3.47 4.87c2.01 2.83 1.39 6.81-1.39 8.89l-4.8 3.58c-2.5 1.87-4.01 4.84-4.04 7.97l-.06 5.98c-.03 3.47-2.88 6.33-6.35 6.37l-5.98.08c-3.12.04-6.1 1.56-7.95 4.07l-3.56 4.81c-1.46 1.97-3.87 2.86-6.16 2.52Zm-11.36-10.04c2.12.32 4.16 1.12 5.94 2.38l4.88 3.46c1.16.82 2.79.56 3.63-.58l3.56-4.81c2.56-3.46 6.66-5.55 10.96-5.61l5.98-.08a2.64 2.64 0 0 0 2.59-2.6l.06-5.98c.04-4.3 2.13-8.41 5.57-10.98l4.8-3.58c1.14-.85 1.39-2.48.57-3.63l-3.47-4.87c-2.5-3.5-3.22-8.05-1.95-12.16l1.78-5.71c.42-1.35-.33-2.82-1.67-3.27l-5.67-1.9a13.95 13.95 0 0 1-8.72-8.69l-1.92-5.67c-.46-1.34-1.93-2.09-3.28-1.66l-5.71 1.79c-4.1 1.29-8.65.58-12.16-1.91l-4.89-3.46c-1.16-.82-2.79-.56-3.63.58l-3.56 4.81c-2.56 3.46-6.66 5.55-10.96 5.61l-5.98.08a2.64 2.64 0 0 0-2.59 2.6l-.06 5.98c-.04 4.3-2.12 8.41-5.57 10.98l-4.8 3.58a2.64 2.64 0 0 0-.57 3.63l3.47 4.87a13.96 13.96 0 0 1 1.95 12.16l-1.78 5.71c-.42 1.35.33 2.82 1.67 3.27l5.67 1.9c4.08 1.37 7.34 4.62 8.72 8.69l1.92 5.67c.46 1.34 1.93 2.09 3.28 1.66l5.71-1.79c2.03-.64 4.16-.79 6.22-.47Z"/><path d="M315 289.46c1.36.2 2.71.52 4.04.95 6.39 2.06 11.59 6.49 14.65 12.47s3.61 12.79 1.54 19.18l-8.5-2.75a16.1 16.1 0 0 0-.99-12.36 16.1 16.1 0 0 0-9.44-8.04c-.86-.28-1.73-.48-2.6-.61-3.32-.5-6.71.05-9.76 1.61a16.1 16.1 0 0 0-8.04 9.44 16.1 16.1 0 0 0 .99 12.36c1.97 3.85 5.33 6.71 9.44 8.04l-2.74 8.5c-6.39-2.06-11.59-6.49-14.65-12.47s-3.6-12.79-1.54-19.18 6.49-11.59 12.47-14.65c4.73-2.42 9.99-3.27 15.14-2.49m.56-3.76c-5.98-.9-12.01.09-17.44 2.87-6.88 3.52-11.98 9.51-14.36 16.87-2.38 7.35-1.75 15.19 1.77 22.08 3.52 6.88 9.51 11.98 16.87 14.36l3.62 1.17 1.17-3.62 2.74-8.5 1.17-3.62-3.62-1.17c-3.15-1.02-5.71-3.2-7.22-6.15a12.3 12.3 0 0 1-.76-9.46c1.02-3.15 3.2-5.72 6.15-7.23 2.33-1.19 4.91-1.62 7.46-1.23.67.1 1.34.26 2 .47 3.15 1.02 5.72 3.2 7.23 6.15s1.78 6.31.76 9.46l-1.17 3.62 3.62 1.17 8.5 2.75 3.62 1.17 1.17-3.62c2.38-7.35 1.75-15.2-1.77-22.08s-9.51-11.98-16.87-14.36a28.4 28.4 0 0 0-4.64-1.09Z"/></g><path fill="#05809e" d="M258.45 60 26.86 340.78c-14.68 17.8-12.62 42.54 4.54 56.71l94.85 78.61c16.55 13.66 41.82 10.61 55.97-6.55l232.15-280.32c14.68-17.8 14.16-43.24-3.01-57.41l-93.02-77.09c-17.17-14.17-45.22-12.53-59.9 5.27Z"/><path fill="#fbc468" d="m254.84 322.54-99.57-84.49c-5.85-4.96-6.57-13.72-1.6-19.57l22.27-26.24c5.44-6.41 15.05-7.2 21.46-1.76l98.54 82.62c5.85 4.96 6.57 14.72 1.6 20.57l-23.14 27.27c-4.96 5.85-13.72 6.57-19.57 1.6Z"/><path fill="#f9b23c" d="m305.72 261.09-99.42-84.36c-5.89-5-6.61-13.82-1.61-19.71l23.01-27.11c5-5.89 13.82-6.61 19.71-1.61l99.42 83.36c5.89 5 6.61 14.82 1.61 20.71l-23.01 27.11c-5 5.89-13.82 6.61-19.71 1.61"/><path fill="#faa310" d="m355.86 200.15-99.26-84.23c-5.93-5.03-6.66-13.92-1.63-19.85l22.88-26.96c5.03-5.93 13.92-6.66 19.85-1.63l99.26 83.23c5.93 5.03 6.66 14.92 1.63 20.85l-22.88 26.96c-5.03 5.93-13.92 6.66-19.85 1.63"/><g data-name="text"><path fill="#4092ac" d="M128.74 43.97 18.88 380.96c-6.97 21.37 4.15 43.19 25.31 50.09l117.04 38.42c20.4 6.65 42.66-4.98 49.37-25.57l110.54-336.76c6.97-21.37-2.98-44.36-24.15-51.26L179.78 17.41c-24.45-7.19-44.09 5.21-51.05 26.58Z"/><g fill="#006e8f"><path d="m243.27 62.03-6.37 19.12-14.03-4.6 6.37-19.12-18.89-6.18-19.06 57.87 18.89 6.19L219 88.37l14.03 4.6-8.82 26.93 18.9 6.18 19.05-57.87zM286.23 76.05c-1.74 5.2-5.79 10.44-10.99 8.7l-3.27 9.99 7.67 2.51-12.32 37.57 18.48 6.05 18.91-58.76-18.48-6.05ZM228.65 150.74l-4.37 13.36-9.3-3.04 4.38-13.36-12.52-4.1-12.85 39.26 12.52 4.09 5.92-18.09 9.3 3.04-5.93 18.1 12.24 4.01 12.86-39.26zM264.34 205.81l-26.45-8.66 3.28-10.01s15.45-4.43 21.6-7c2.44-1.08 3.82-3.02 3.71-5.3-.1-2.17-1.51-4.03-3.6-4.73-5-1.68-6.45-.52-9.63 2.03l-5.09-6.35c3.61-2.89 8.09-6.48 17.3-3.4 5.3 1.78 8.89 6.51 9.15 12.06.26 5.65-3.04 10.69-8.63 13.15-3.99 1.67-10.43 3.67-15.11 5.04l16.06 5.26-2.59 7.9ZM216.92 219.08l-3.26 9.92-6.85-2.29 3.02-9.61-9.04-3.3-9.52 29.08 9.25 3.03 4.4-13.42 5.12 1.48-2.65 14.19 9.25 3.03 9.53-29.08zM248.25 243.84c1.73-1.17 2.93-2.94 3.49-5.18 1.12-4.45-1.82-9.08-6.83-10.76-4.33-1.45-8.27.84-9.91 2.42l4.13 4.3s1.92-1.74 3.89-1.09c2.23.75 3.24 2.45 2.94 3.66-.22.89-.63 1.49-1.23 1.82-.82.45-2.08.45-3.39.01l-1.89 5.64c2.81.94 5.48 3.16 4.68 5.82-.19.65-.68 1.18-1.46 1.58-1.48.76-3.62.82-5.61.16-2.51-.84-4.08-2.28-4.82-4.42l-5.64 1.93c1.34 3.89 4.3 6.7 8.57 8.13 3.57 1.2 7.3 1.01 10.25-.52 2.2-1.14 3.77-2.97 4.42-5.15.88-2.94.22-5.91-1.59-8.36Z"/></g></g><g data-name="cover"><path fill="#faa310" d="m1.05 74.78 16.82 344.11c1.07 21.82 19.19 37.77 41.43 36.67l123.05-5.81c21.43-1.05 38.11-19.35 37.09-40.38l-16.1-344.15c-1.07-21.82-18.52-39.24-40.76-38.14L39.53 32.89C17.29 33.99-.02 52.96 1.05 74.78"/><circle cx="116.42" cy="374.53" r="50.5" fill="#05809e" transform="rotate(-3.23 116.515 374.574)"/><path fill="#fff" d="M129.07 348.73c4.65-2.94 10.15-3.31 14.97-1.6-12.57-12.7-32.68-15.45-48.41-5.51-18.17 11.48-23.6 35.52-12.12 53.69s35.52 23.6 53.69 12.12c13.65-8.62 20.11-24.34 17.61-39.33-1.13 3.92-3.58 7.47-7.3 9.82-8.06 5.09-18.72 2.68-23.81-5.38s-2.69-18.72 5.38-23.81Z"/></g></svg>